<svg width="500" height="500" viewBox="0 0 500 500" fill="none" xmlns="http://www.w3.org/2000/svg">
  <title>sfc-logo</title>
  <path d="M249.528 0C387.339 0.00020029 499.056 111.718 499.056 249.528C499.055 387.339 387.339 499.055 249.528 499.056C111.718 499.056 0.000200241 387.339 0 249.528C7.21593e-06 111.718 111.718 8.76432e-06 249.528 0ZM204.507 396.467L194.011 411.491L193.546 468.052C211.446 472.624 230.203 475.056 249.528 475.056C261.177 475.056 272.619 474.172 283.791 472.469L284.38 400.793L274.111 388.229L204.507 396.467ZM331.773 304.463L338.902 313L339.058 456.585C377.536 439.924 410.457 412.852 434.267 378.921L331.773 283.344V304.463ZM24.4961 264.59C29.6703 343.059 74.9777 410.562 140.084 446.766V331.5L147.394 321.707V219.888L284.663 147V126.257L24.4961 264.59ZM331.773 246.427L448.685 355.448C461.629 331.16 470.261 304.224 473.557 275.664L331.773 143.449V246.427ZM204.507 220.467L194.011 235.491L193.252 327.97L203.521 340.536L273.128 332.298L283.621 317.278L284.38 224.793L274.111 212.229L204.507 220.467ZM249.528 24C150.103 24 65.7044 88.3387 35.6953 177.653L165 108.901V96.3867L171 93C171.022 93.0267 185.963 110.927 207.232 136.848L293.598 90.9268V72L300 68.5L331.618 106.387L474.855 239.958C469.841 119.841 370.878 24.0002 249.528 24ZM26.9639 212.875C25.8299 219.813 25.0118 226.858 24.5264 233.994L147.612 168.549V148.727L26.9639 212.875Z" fill="currentColor"/>
</svg>
